<svg width="100" height="101" viewBox="0 0 100 101" fill="none" xmlns="http://www.w3.org/2000/svg">
<path d="M74.7938 0.000893574C71.4862 -0.0344795 68.8821 0.9799 67.8965 3.12516C63.0718 13.6322 57.5721 21.5827 51.1433 27.9668C51.7887 28.1818 52.4239 28.4518 53.0365 28.7681C55.7873 30.1889 58.3886 32.5341 60.5161 35.3011C62.6435 38.0678 64.297 41.256 64.9176 44.515C65.0756 45.3428 65.1633 46.1852 65.1628 47.0235C73.4173 41.8637 83.1794 38.2919 95.0022 36.1549C98.1604 35.5836 100.012 30.0902 99.5361 23.7307L92.0896 23.5189L98.5626 18.2631C97.684 15.1903 96.2299 12.1726 94.0817 9.63803C90.7926 5.75886 86.3653 2.99214 82.0676 1.44377L76.5682 4.74681L77.1638 0.192798C76.3431 0.0762996 75.5519 0.00851902 74.7941 0.000681876L74.7938 0.000893574ZM47.9728 31.3825C47.7477 31.3935 47.5365 31.4304 47.3374 31.482C44.8007 33.654 42.1246 35.633 39.3016 37.4722C39.4799 37.5421 39.6553 37.6134 39.8311 37.6908C42.8226 39.0023 45.6429 41.3223 47.9796 44.1776C50.8086 47.6348 52.9827 52.002 53.4071 56.4099C55.596 54.214 57.9061 52.1857 60.364 50.3266C61.2316 48.9381 61.4082 47.262 61.0259 45.2561C60.5633 42.8287 59.1954 40.0815 57.3721 37.7102C55.5484 35.3392 53.2671 33.3422 51.2161 32.2825C49.9342 31.6204 48.8536 31.3399 47.9726 31.3823L47.9728 31.3825ZM34.86 40.5503C34.5667 40.5615 34.2902 40.6074 34.0195 40.6693C26.1824 45.067 17.2675 48.7151 7.053 52.5309C7.17458 52.5398 7.29447 52.5506 7.41732 52.564C9.66828 52.8088 11.8815 53.6247 14.0164 54.8674L21.9991 51.3858L18.6496 58.3164C19.9195 59.467 21.1497 60.7474 22.3234 62.1291C26.7206 67.3046 30.3647 73.9621 32.2985 80.7883C32.299 80.7904 32.2979 80.7929 32.2985 80.795C32.9298 83.0208 33.3809 85.2253 33.6355 87.3613C38.0815 77.1014 43.0359 68.4547 48.959 61.3081C50.5053 56.7583 48.496 51.0546 44.9212 46.6865C42.9217 44.2426 40.4782 42.2981 38.2427 41.3181C36.9854 40.7665 35.8556 40.5115 34.86 40.55V40.5503ZM64.8585 52.167C63.3101 53.2367 61.7952 54.3932 60.3178 55.6221C68.6125 57.5835 73.2285 63.1886 77.4017 68.7877C79.6181 71.7616 81.7647 74.7418 84.4181 77.406C89.5419 79.3435 93.5621 78.7574 97.9543 74.2419C78.4324 68.3577 77.5968 54.6258 64.8583 52.1666L64.8585 52.167ZM5.96067 56.4495C3.65761 56.4971 2.09294 57.6685 1.01607 59.9643C-0.21457 62.5881 -0.490776 66.8419 1.10885 72.0511C2.32678 76.0184 4.60803 80.0403 7.19852 82.986C9.78901 85.9315 12.6845 87.6621 14.6912 87.732H14.698C15.4853 87.7595 16.086 87.5875 16.5645 87.1495L16.5249 87.1096L16.9683 86.6661C17.1362 86.4187 17.2902 86.1264 17.4315 85.7792C18.0267 84.3177 18.1262 81.8497 17.0409 78.7894C15.5826 74.6766 12.991 72.0257 9.97159 71.4224L5.10664 70.4557L9.30332 67.808L17.4518 62.6851C13.9251 59.1219 10.1336 56.8375 6.99327 56.4959C6.63318 56.4569 6.28941 56.4429 5.96046 56.4497L5.96067 56.4495ZM56.0019 57.5946L50.8061 62.9693C72.0811 66.7562 62.5512 92.8363 84.5502 100.289L79.3015 88.1558C86.2418 91.5766 93.5757 92.9477 100 90.7039C71.2419 81.8187 79.598 63.8071 56.0019 57.5946ZM20.1057 65.6901L14.6053 69.1518C17.397 70.9522 19.5215 73.9314 20.7744 77.4655C21.3187 78.9999 21.6498 80.4743 21.7805 81.867L26.7454 76.9161C25.0339 72.8513 22.7135 68.959 20.1061 65.6899L20.1057 65.6901ZM28.2342 81.02L19.3247 89.9162L19.2916 89.8831C18.3904 90.7181 17.2887 91.3161 16.075 91.5645C21.0035 94.7148 25.5313 95.6623 28.1086 93.5899C29.011 92.8642 29.6005 91.8191 29.9027 90.5385C29.8159 87.8518 29.3516 84.9011 28.4927 81.874C28.4118 81.5889 28.3219 81.3051 28.2342 81.02Z" fill="white"/>
</svg>
