<svg width="20" height="20" viewBox="0 0 20 20" fill="none" xmlns="http://www.w3.org/2000/svg">
<path d="M10 0C4.47266 0 0 4.47266 0 10C0 15.5273 4.47266 20 10 20C15.5273 20 20 15.5273 20 10C20 4.47266 15.5273 0 10 0ZM4.65625 12.3281L3.71094 8.61719C3.63672 8.39844 3.60156 8.28906 3.42188 8.21875C3.13281 8.07422 2.66016 7.92969 2.22266 7.82031L2.25781 7.67578H4.29297C4.54688 7.67578 4.80078 7.85938 4.83984 8.14844L5.34766 10.8398L6.58594 7.67578H7.85938L5.93359 12.332H4.65625V12.3281ZM7.41797 12.3281L8.39844 7.67188H9.59766L8.61719 12.3281H7.41797ZM10.7617 12.3984C10.2148 12.3984 9.70703 12.2891 9.41797 12.1445L9.63672 11.125C9.92578 11.2695 10.2539 11.4141 10.875 11.4141C11.2031 11.4141 11.6016 11.2695 11.6016 10.9766C11.6016 10.7578 11.457 10.6133 10.9844 10.3945C10.5117 10.1758 9.92969 9.8125 9.92969 9.12109C9.92969 8.21094 10.7656 7.59375 11.9648 7.59375C12.4375 7.59375 12.8008 7.70312 13.0938 7.8125L12.875 8.79297C12.3281 8.53906 11.8555 8.57422 11.6758 8.57422C11.3125 8.60938 11.168 8.79297 11.168 8.97266C11.168 9.51953 12.8398 9.58984 12.8398 10.8281C12.8359 11.7812 12.0352 12.3984 10.7617 12.3984ZM16 12.3281L15.8555 11.6367H14.3281L14.0742 12.3281H12.8008L14.6172 8.03906C14.6914 7.82031 14.9063 7.71094 15.125 7.71094H16.1445L17.125 12.3672H15.9961V12.3281H16Z" fill="#000000"/>
</svg>
